<svg xmlns="http://www.w3.org/2000/svg" width="140" height="256" viewBox="0 0 140 256"><path fill="#b4fff4" d="M111.2 175.6l-14.6-24.1c2.7-9.3 4.8-19.7 4.8-29.9 0-1.3 0-2.6-.1-4-1.5-26.8-11.9-36.5-19.6-44.2-3.7-3.7-6.5-6.8-8.5-11.3a.3.3 0 0 0-.1-.2 9.9 9.9 0 0 0 3.3-1.1 4.6 4.6 0 0 0 2.1-4.1l-.4-1c-.6-.6-2.5-1-5.5-1.1a18.4 18.4 0 0 1 .1-5.2c.1-.9.1-.9 1.4-1.1h.3a2 2 0 0 0 1.6-1c.5-1.1-.2-2.3-.6-3v-.2l-.2-.4c-2.1-5.2-3.2-8.8-3.2-10.8s-.6-3.3-1.1-3.5a1.1 1.1 0 0 0-1.3 0c-.2.1-1.1.6-1.1 3.5 0 1.3-.5 4.3-3.2 10.9v.5a5.3 5.3 0 0 0-.8 2.2 3.1 3.1 0 0 0 .2.8 1.8 1.8 0 0 0 1.6 1h.2c1.4.2 1.4.2 1.5 1.1s.2 2.2.2 3.2a6.8 6.8 0 0 1-.2 2c-3 .1-4.8.5-5.5 1.1l-.4 1a4.7 4.7 0 0 0 1.9 4.1 8.5 8.5 0 0 0 3.3 1.1c-.1 0-.1.1-.1.2-2 4.5-5.2 7.7-8.9 11.4-7.7 7.8-18.1 17.4-19.6 44.1-.1 1.4-.1 2.7-.1 4 0 10.2 2.1 20.6 4.8 29.9l-14.6 24.1-8.8 51.2h10l9.3-32.5 15.6-13.2h.1l.5.2 1.7.6.8 4.3c.2.9.6 2.8 7.9 3.3v37.2h8.2v-37c7.7-.5 8.1-2.5 8.2-3.3l.8-4.4 1.7-.6h.4l15.5 13 9.3 32.5h10z"/></svg>